<svg width="1890" height="502" viewBox="0 200 1890 2002" fill="none" xmlns="http://www.w3.org/2000/svg">
<rect x="4" width="1885" height="1017" fill="#E6A4B4"/>
<path d="M50.828 1122.79C35.6956 1091.39 2.90893 1046.67 2.90893 1046.67L3.68048 985.447L1874.38 986.573C1874.38 986.573 1907.34 1015.56 1873.48 1058C1839.62 1100.43 1839.54 1106.55 1823.27 1163.49C1807 1220.43 1822.25 1311.86 1766.09 1293.39C1718.3 1277.68 1760.33 1218.89 1738.68 1176.71C1723.26 1146.69 1722.34 1106.45 1686.24 1106.66C1650.63 1106.86 1645.75 1145.61 1634.27 1175.4C1622.79 1205.19 1639.3 1264.75 1599.84 1262.72C1560.93 1260.73 1572.07 1174.61 1572.07 1174.61C1562.81 1145.92 1534.58 1128.28 1499.38 1124.71C1453.66 1120.09 1442.01 1209.31 1403.07 1186.77C1378.37 1172.48 1389.39 1146.47 1374.98 1123.15C1351.03 1084.36 1338.78 1048.91 1291.63 1038.42C1210.13 1020.27 1278.54 1228.78 1196.09 1214.78C1127.76 1203.17 1185.14 1071.29 1115.72 1068.85C1082.71 1067.7 1070.6 1097.41 1037.59 1098.48C985.105 1100.2 975.247 1030.23 922.875 1033.77C877.016 1036.86 872.525 1094.63 826.557 1095.82C791.936 1096.73 744.752 1064.18 744.752 1064.18L719.468 1131.21C705.685 1167.1 725.882 1237.42 678.145 1236.82C630.408 1236.22 652.389 1165.06 639.497 1130.2C639.497 1130.2 611.79 978.144 571.894 1029.35C531.998 1080.55 532.228 1199.81 454.427 1182.98C408.423 1173.03 399.561 1129.22 371.017 1102.33C342.474 1075.44 312.67 1148.54 312.67 1148.54C312.67 1148.54 308.767 1242.61 262.539 1247.91C208.625 1254.09 256.24 1165.29 224.097 1124.97C211.035 1108.58 206.33 1091.27 184.575 1087.73C158.247 1083.46 146.954 1105.98 128.577 1123.77C82.1177 1168.74 128.766 1285 88.8585 1278.38C48.9506 1271.75 78.284 1179.75 50.828 1122.79Z" fill="#E6A4B4" stroke="#E6A4B4"/>
</svg>
